<svg width="17" height="18" viewBox="0 0 17 18" fill="none" xmlns="http://www.w3.org/2000/svg">
<path d="M6.1998 8.1H4.3998V9.9H6.1998V8.1ZM9.7998 8.1H7.9998V9.9H9.7998V8.1ZM13.3998 8.1H11.5998V9.9H13.3998V8.1ZM15.1998 1.8H14.2998V0H12.4998V1.8H5.2998V0H3.4998V1.8H2.5998C1.6008 1.8 0.808805 2.61 0.808805 3.6L0.799805 16.2C0.799805 16.6774 0.989447 17.1352 1.32701 17.4728C1.66458 17.8104 2.12241 18 2.5998 18H15.1998C16.1898 18 16.9998 17.19 16.9998 16.2V3.6C16.9998 2.61 16.1898 1.8 15.1998 1.8ZM15.1998 16.2H2.5998V6.3H15.1998V16.2Z" fill="#CDC3F4"/>
</svg>
