<svg width="32" height="23" viewBox="0 0 32 23" fill="none" xmlns="http://www.w3.org/2000/svg">
<path d="M1.5984 19.501H20.8005C21.2084 19.5014 21.6007 19.6576 21.8972 19.9376C22.1938 20.2175 22.3723 20.6002 22.3962 21.0074C22.4201 21.4145 22.2876 21.8154 22.0258 22.1282C21.7641 22.4409 21.3927 22.6419 20.9878 22.6901L20.8005 22.7013H1.5984C1.19055 22.7009 0.798264 22.5447 0.501694 22.2647C0.205123 21.9847 0.0266544 21.6021 0.00275236 21.1949C-0.0211497 20.7878 0.111319 20.3868 0.373093 20.0741C0.634866 19.7613 1.00619 19.5603 1.41118 19.5122L1.5984 19.501ZM1.5984 9.89989H30.4016C30.8094 9.90034 31.2017 10.0565 31.4983 10.3365C31.7949 10.6165 31.9733 10.9991 31.9972 11.4063C32.0211 11.8134 31.8887 12.2144 31.6269 12.5271C31.3651 12.8399 30.9938 13.0409 30.5888 13.089L30.4016 13.1002H1.5984C1.19055 13.0998 0.798264 12.9436 0.501694 12.6636C0.205123 12.3837 0.0266544 12.001 0.00275236 11.5938C-0.0211497 11.1867 0.111319 10.7858 0.373093 10.473C0.634866 10.1603 1.00619 9.95926 1.41118 9.91109L1.5984 9.89989ZM1.5984 0.298828H25.6011C26.0089 0.299281 26.4012 0.455452 26.6978 0.735434C26.9943 1.01542 27.1728 1.39807 27.1967 1.80523C27.2206 2.21238 27.0882 2.61329 26.8264 2.92605C26.5646 3.23881 26.1933 3.43981 25.7883 3.48798L25.6011 3.49918H1.5984C1.19055 3.49873 0.798264 3.34256 0.501694 3.06258C0.205123 2.7826 0.0266544 2.39994 0.00275236 1.99278C-0.0211497 1.58563 0.111319 1.18472 0.373093 0.87196C0.634866 0.5592 1.00619 0.3582 1.41118 0.310029L1.5984 0.298828Z" fill="#7A60E1"/>
</svg>
