<svg width="13" height="16" viewBox="0 0 13 16" fill="none" xmlns="http://www.w3.org/2000/svg">
<path d="M0 15.4062H12.8571V15.3795C12.8558 14.1864 12.3812 13.0426 11.5376 12.199C10.694 11.3554 9.5502 10.8808 8.35714 10.8795H4.5C3.30694 10.8808 2.16314 11.3554 1.31952 12.199C0.475904 13.0426 0.00136116 14.1864 0 15.3795V15.4062ZM1.92857 5.09375C1.92857 5.98377 2.19249 6.85379 2.68696 7.59382C3.18142 8.33384 3.88423 8.91061 4.7065 9.25121C5.52876 9.5918 6.43356 9.68092 7.30648 9.50728C8.17939 9.33365 8.98122 8.90507 9.61055 8.27573C10.2399 7.64639 10.6685 6.84457 10.8421 5.97166C11.0157 5.09874 10.9266 4.19394 10.586 3.37167C10.2454 2.54941 9.66866 1.8466 8.92864 1.35214C8.18862 0.85767 7.31859 0.59375 6.42857 0.59375C5.2351 0.59375 4.0905 1.06786 3.24659 1.91177C2.40268 2.75568 1.92857 3.90028 1.92857 5.09375Z" fill="#CDC3F4"/>
</svg>
