<svg width="26" height="26" viewBox="0 0 26 26" fill="none" xmlns="http://www.w3.org/2000/svg">
<path d="M13 1V2.33333M13 23.6667V25M25 13H23.6667M2.33333 13H1M21.4853 21.4853L20.5427 20.5427M5.45733 5.45733L4.51467 4.51467M21.4853 4.51467L20.5427 5.45733M5.45733 20.5427L4.51467 21.4853M18.3333 13C18.3333 14.4145 17.7714 15.771 16.7712 16.7712C15.771 17.7714 14.4145 18.3333 13 18.3333C11.5855 18.3333 10.229 17.7714 9.22876 16.7712C8.22857 15.771 7.66667 14.4145 7.66667 13C7.66667 11.5855 8.22857 10.229 9.22876 9.22876C10.229 8.22857 11.5855 7.66667 13 7.66667C14.4145 7.66667 15.771 8.22857 16.7712 9.22876C17.7714 10.229 18.3333 11.5855 18.3333 13Z" stroke="white" stroke-linecap="round" stroke-linejoin="round"/>
</svg>
