<svg width="20" height="29" viewBox="0 0 20 29" fill="none" xmlns="http://www.w3.org/2000/svg">
<path d="M5.00502 22.3104H14.9952V24.3085H5.00502V22.3104ZM7.00305 26.3065H12.9972V28.3046H7.00305V26.3065ZM10.0001 0.332031C7.35055 0.332031 4.80951 1.38457 2.93598 3.25809C1.06246 5.13161 0.00992409 7.67266 0.00992409 10.3222C-0.0576353 11.7741 0.220491 13.2213 0.821422 14.5448C1.42235 15.8682 2.32892 17.0301 3.46653 17.9347C4.46555 18.8638 5.00502 19.3933 5.00502 20.3124H7.00305C7.00305 18.4742 5.89414 17.4452 4.8152 16.4562C3.88148 15.7412 3.13732 14.8081 2.64791 13.7387C2.1585 12.6693 1.93877 11.4962 2.00796 10.3222C2.00796 8.20257 2.84999 6.16973 4.34881 4.67092C5.84763 3.1721 7.88046 2.33007 10.0001 2.33007C12.1198 2.33007 14.1526 3.1721 15.6514 4.67092C17.1502 6.16973 17.9923 8.20257 17.9923 10.3222C18.0603 11.4971 17.839 12.6707 17.3478 13.7402C16.8567 14.8096 16.1106 15.7422 15.175 16.4562C14.1061 17.4552 12.9972 18.4542 12.9972 20.3124H14.9952C14.9952 19.3933 15.5247 18.8638 16.5337 17.9248C17.6705 17.0216 18.5767 15.8615 19.1776 14.5398C19.7785 13.2181 20.0571 11.7726 19.9903 10.3222C19.9903 9.01029 19.7319 7.7112 19.2298 6.49914C18.7278 5.28707 17.9919 4.18576 17.0642 3.25809C16.1366 2.33041 15.0353 1.59454 13.8232 1.09249C12.6111 0.590435 11.312 0.332031 10.0001 0.332031Z" fill="#FF9900"/>
</svg>
