<svg width="20" height="18" viewBox="0 0 20 18" fill="none" xmlns="http://www.w3.org/2000/svg">
<path fill-rule="evenodd" clip-rule="evenodd" d="M11.6792 16.262C11.6792 16.6665 11.5185 17.0544 11.2325 17.3404C10.9465 17.6264 10.5586 17.7871 10.1541 17.7871C9.74963 17.7871 9.36171 17.6264 9.07566 17.3405L0.446609 10.4022C0.160645 10.1162 0 9.72825 0 9.32377C0 8.9193 0.160645 8.53138 0.446609 8.24533L9.07566 1.3071C9.36335 1.02924 9.74866 0.875488 10.1486 0.878964C10.5486 0.882439 10.9311 1.04286 11.214 1.32568C11.4968 1.60849 11.6572 1.99108 11.6607 2.39103C11.6641 2.79097 11.5104 3.17629 11.2325 3.46398L5.47555 7.9318H18.5205C19.3376 7.9318 20 8.59418 20 9.41126C20 10.2283 19.3376 10.8907 18.5205 10.8907H5.70102L11.2325 15.1836C11.5185 15.4696 11.6792 15.8575 11.6792 16.262Z" fill="#5938D9"/>
</svg>
