<svg width="56" height="26" viewBox="0 0 56 26" fill="none" xmlns="http://www.w3.org/2000/svg">
<path d="M55.26 17.3175C55.26 18.0808 54.9567 18.813 54.417 19.3527C53.8772 19.8925 53.1451 20.1958 52.3817 20.1958H35.1118L29.3552 25.9524V2.92591C29.3552 2.16254 29.6584 1.43043 30.1982 0.890638C30.738 0.350849 31.4701 0.0475998 32.2335 0.0475998H52.3817C53.1451 0.0475998 53.8772 0.350849 54.417 0.890638C54.9567 1.43043 55.26 2.16254 55.26 2.92591V17.3175Z" fill="#1070FF"/>
<path d="M17.1254 8.68253C16.7159 8.00812 16.1499 7.49026 15.4273 7.12897C14.7288 6.76767 13.8978 6.58703 12.9343 6.58703C11.1519 6.58703 9.7429 7.1651 8.70719 8.32124C7.69557 9.47738 7.18976 11.0309 7.18976 12.9819C7.18976 15.1738 7.7317 16.8478 8.81558 18.0039C9.92355 19.136 11.5253 19.702 13.6208 19.702C16.1017 19.702 17.872 18.582 18.9318 16.342H11.8143V11.2477H25.0377V18.1123C24.4837 19.4611 23.6648 20.7257 22.5809 21.9059C21.5211 23.0861 20.1723 24.0616 18.5344 24.8324C16.8965 25.5791 15.0298 25.9524 12.9343 25.9524C10.3812 25.9524 8.11708 25.4105 6.142 24.3266C4.19101 23.2186 2.67358 21.6891 1.5897 19.7381C0.529898 17.7631 0 15.511 0 12.9819C0 10.477 0.529898 8.24898 1.5897 6.29799C2.67358 4.32291 4.19101 2.79344 6.142 1.70955C8.09299 0.601584 10.3451 0.0475998 12.8982 0.0475998C16.1017 0.0475998 18.7512 0.818362 20.8467 2.35988C22.9422 3.90141 24.2428 6.00895 24.7487 8.68253H17.1254Z" fill="#000E1A"/>
</svg>
