<svg width="42" height="42" viewBox="0 0 42 42" fill="none" xmlns="http://www.w3.org/2000/svg">
<circle cx="21" cy="21" r="21" fill="#EB7100"/>
<path fill-rule="evenodd" clip-rule="evenodd" d="M14.2318 32.0131H11.9407V34.3042H14.2318V32.0131ZM14.1511 13.8734H11.86V16.1645H9.56887V11.5823H14.1511V13.8734ZM11.86 7H14.1511V9.29112H11.86V7ZM32.4244 16.1645H30.1333V13.8734H27.8422V11.5823H32.4244V16.1645ZM27.8422 7H30.1333V9.29112H27.8422V7ZM34.7089 20.651V13.8667H37V20.6577H34.7155V22.9421H30.1446V29.7486H27.8217V32.013H23.3361V29.7486H18.7174V32.013L14.2318 32.0131V29.7486H11.86V22.9421H7.26869V20.6644H5V13.8734H7.29113V20.651H11.86V18.3866H14.1233V16.1233H16.4144V11.5411H18.7055V16.1233H23.2878V11.5411H25.5789V16.1233H27.8895V18.3866H30.1446V20.651H34.7089ZM30.1333 34.3041H27.8422V32.013H30.1333V34.3041ZM14.1233 25.1646H18.6608V20.6645H14.1233V25.1646ZM23.3769 20.6645H27.8895V25.1646H23.3769V20.6645Z" fill="white"/>
</svg>
