<svg width="42" height="42" viewBox="0 0 42 42" fill="none" xmlns="http://www.w3.org/2000/svg">
<circle cx="21" cy="21" r="21" fill="#EB7100"/>
<path d="M18.4286 31C17.9625 31 17.5714 31.3911 17.5714 31.8571V34.4286H19.2857V31.8571C19.2857 31.3911 18.9 31 18.4286 31ZM23.5714 31C23.1027 31 22.7143 31.3884 22.7143 31.8571C22.7143 32.3259 23.1027 32.7143 23.5714 32.7143C24.0402 32.7143 24.4286 32.3259 24.4286 31.8571C24.4286 31.3884 24.0429 31 23.5714 31ZM17.7857 16.2143L18.2253 17.5332C18.2904 17.7285 18.5668 17.7285 18.6319 17.5332L19.0714 16.2143L20.3904 15.7748C20.5857 15.7095 20.5857 15.4333 20.3904 15.368L19.0714 14.9286L18.6321 13.6107C18.5671 13.4153 18.2906 13.4153 18.2255 13.6107L17.7857 14.9286L16.4679 15.3679C16.2725 15.4332 16.2725 15.7094 16.4679 15.7747L17.7857 16.2143ZM27.0054 23.8964C25.2857 25.1393 23.2018 25.8571 21 25.8571C18.7982 25.8571 16.7127 25.1377 14.9946 23.897C11.4938 25.225 9 28.6054 9 32.5696C9 33.5982 9.83143 34.4286 10.8568 34.4286H15.8571V31C15.8571 30.0491 16.6205 29.2857 17.5714 29.2857H24.4286C25.3795 29.2857 26.1429 30.0491 26.1429 31V34.4286H31.1432C32.1696 34.4286 33 33.5982 33 32.5696C33 28.6054 30.5089 25.225 27.0054 23.8964ZM12.4286 19H13.1518C14.4804 22.0268 17.4857 24.1429 21 24.1429C24.5143 24.1429 27.525 22.0268 28.8482 19H29.5714C30.0402 19 30.4286 18.6116 30.4286 18.1429V13C30.4286 12.5339 30.0429 12.1429 29.5714 12.1429H28.8482C27.525 9.11607 24.5143 7 21 7C17.4857 7 14.4804 9.11607 13.1518 12.1429H12.4286C11.9598 12.1429 11.5714 12.5339 11.5714 13V18.1429C11.5714 18.6143 11.9598 19 12.4286 19ZM14.5714 14.2857C14.5714 13.1018 15.7232 12.1429 17.1429 12.1429H24.8571C26.2768 12.1429 27.4286 13.1007 27.4286 14.2857V15.5714C27.4286 18.4107 25.125 20.7143 22.2857 20.7143H19.7143C16.875 20.7143 14.5714 18.4107 14.5714 15.5714V14.2857Z" fill="white"/>
</svg>
