<svg width="42" height="42" viewBox="0 0 42 42" fill="none" xmlns="http://www.w3.org/2000/svg">
<circle cx="21" cy="21" r="21" fill="#EB7100"/>
<path d="M20.0611 6.1439L23.2727 8.55481H25.4545L28.6684 6.14609C28.7752 6.06659 28.902 6.01828 29.0346 6.00652C29.1672 5.99476 29.3006 6.02002 29.4197 6.07948C29.5388 6.13894 29.6392 6.23027 29.7095 6.34333C29.7799 6.45639 29.8175 6.58675 29.8182 6.7199V14.0094C29.8182 15.5846 28.6793 16.5926 27.6364 17.4414V26.0094L29.3818 31.2457L30.9222 32.0159C31.2462 32.178 31.5187 32.4272 31.7091 32.7355C31.8995 33.0438 32.0002 33.399 32 33.7614C32 34.3003 31.5636 34.7366 31.0247 34.7366H12.9091C10.2189 34.7366 8 32.5548 8 29.7468C8 25.0123 8.98836 21.493 9.62545 19.1257C9.944 17.941 10.2582 17.053 10.4829 16.4399C10.6095 16.0974 10.7338 15.7788 10.9018 15.4603C11.8815 13.5948 14.7069 15.0021 13.8298 16.9177C13.7268 17.1456 13.6301 17.3762 13.5396 17.6094C13.3411 18.1155 13.0727 18.9032 12.7847 19.9744C12.248 21.9708 11.6524 24.9643 11.3993 28.9919C12.2022 24.4974 16.6836 19.9854 20.2945 16.7541C19.5418 16.0428 18.9113 15.1832 18.9113 14.0094V6.71772C18.9113 6.12863 19.5876 5.79045 20.0611 6.1439V6.1439Z" fill="white"/>
</svg>
