<svg width="42" height="42" viewBox="0 0 42 42" fill="none" xmlns="http://www.w3.org/2000/svg">
<circle cx="21" cy="21" r="21" fill="#EB7100"/>
<path d="M16.8183 7L17.9092 9.1818H28.8182L29.9091 7H16.8183ZM17.9092 10.2727V12.9999C17.9092 12.9999 17.9092 18.9999 23.3637 18.9999C28.8182 18.9999 28.8182 12.9999 28.8182 12.9999V10.2727H17.9092ZM9.14711 13.5148C8.5692 13.524 8.01856 13.7622 7.61605 14.1769C7.21354 14.5917 6.99205 15.1493 7.00022 15.7272V24.4544C6.99995 24.7813 7.07313 25.104 7.21436 25.3988C7.35559 25.6936 7.56126 25.9529 7.81616 26.1576C8.07107 26.3622 8.3687 26.507 8.68706 26.5811C9.00542 26.6553 9.33637 26.6569 9.65547 26.586L15.7274 25.2333V35.3634L28.5542 20.2435C28.2444 20.1479 27.9227 20.0965 27.5986 20.0908H19.0001L11.3638 21.7359V15.7272C11.3679 15.4352 11.3134 15.1453 11.2034 14.8747C11.0934 14.6041 10.9302 14.3584 10.7235 14.1521C10.5168 13.9458 10.2707 13.783 9.99992 13.6736C9.72914 13.5641 9.43914 13.5101 9.14711 13.5148V13.5148ZM30.4502 21.642L18.8081 35.3634H31V23.4922C31 22.8071 30.7949 22.1744 30.4502 21.642V21.642Z" fill="white"/>
</svg>
