<svg width="42" height="42" viewBox="0 0 42 42" fill="none" xmlns="http://www.w3.org/2000/svg">
<circle cx="21" cy="21" r="21" fill="#EB7100"/>
<path d="M33 36.1031H9V33.1031C9 29.8031 14.4 27.1031 21 27.1031C27.6 27.1031 33 29.8031 33 33.1031V36.1031ZM15 16.6031H27V18.1031C27 21.4031 24.3 24.1031 21 24.1031C17.7 24.1031 15 21.4031 15 18.1031V16.6031ZM31.5 9.10313C30.6 9.10313 30 9.70313 30 10.6031V12.1031H27.75L25.65 7.60313C25.5 7.30313 25.35 7.00313 25.05 6.85313C24.3 6.10313 23.1 5.95313 22.05 6.40313L21 6.70313L19.95 6.25312C18.9 5.80312 17.7 5.95313 16.95 6.70313C16.65 7.00313 16.5 7.30313 16.35 7.60313L14.25 12.1031H12V10.6031C12 9.70313 11.4 9.10313 10.5 9.10313C9.6 9.10313 9 9.70313 9 10.6031V12.1031C9 13.7531 10.35 15.1031 12 15.1031H30C31.65 15.1031 33 13.7531 33 12.1031V10.6031C33 9.85313 32.4 9.10313 31.5 9.10313Z" fill="white"/>
</svg>
