<svg width="42" height="42" viewBox="0 0 42 42" fill="none" xmlns="http://www.w3.org/2000/svg">
<circle cx="21" cy="21" r="21" fill="#EB7100"/>
<path d="M12.5397 31.9984C13.1193 31.9984 13.5661 31.7178 13.8965 31.3061C14.2473 30.8649 14.3857 30.3702 14.3857 30.1524C14.3857 28.8601 14.4503 27.3889 14.7291 25.9933C15.0078 24.6087 15.5173 23.215 16.4662 22.1535C17.3098 21.212 18.1609 20.1413 18.8107 18.6664C19.2912 17.5497 19.6112 16.3708 19.7614 15.1644C20.1826 15.3439 20.6418 15.4162 21.0978 15.3747C21.5539 15.3332 21.9925 15.1792 22.3744 14.9266C22.7563 14.674 23.0696 14.3306 23.2863 13.9272C23.503 13.5238 23.6162 13.073 23.6159 12.6151C23.6161 12.3703 23.5191 12.1354 23.3462 11.9621C23.1733 11.7889 22.9386 11.6914 22.6938 11.6911C22.5726 11.691 22.4525 11.7148 22.3405 11.761C22.2285 11.8073 22.1266 11.8752 22.0408 11.9608C21.8676 12.1338 21.7701 12.3684 21.7698 12.6132C21.7698 12.858 21.6726 13.0928 21.4995 13.2659C21.3264 13.439 21.0916 13.5362 20.8468 13.5362C20.602 13.5362 20.3673 13.439 20.1942 13.2659C20.0211 13.0928 19.9238 12.858 19.9238 12.6132V10.7672C19.9243 10.0331 20.2163 9.32928 20.7355 8.81038C21.2547 8.29148 21.9588 8 22.6929 8H24.9506C25.4526 8.00005 25.9452 8.1366 26.3757 8.39505L29.6561 10.3629C30.066 10.609 30.4052 10.9569 30.6407 11.3729C30.8762 11.789 31 12.2589 31 12.7369V14.4611C31 15.1955 30.7083 15.8998 30.189 16.4191C29.6697 16.9384 28.9654 17.2302 28.231 17.2302H27.3079V28.3986C28.3504 28.6114 29.2872 29.1778 29.96 30.002C30.6328 30.8262 31.0002 31.8575 31 32.9214C31 33.1662 30.9028 33.401 30.7297 33.5741C30.5566 33.7472 30.3218 33.8444 30.077 33.8444H25.4619V32.9214C25.4619 31.4095 24.7364 30.0693 23.6159 29.2294V25.5373C23.6159 25.2925 23.5186 25.0577 23.3455 24.8846C23.1724 24.7115 22.9377 24.6143 22.6929 24.6143C22.4481 24.6143 22.2133 24.7115 22.0402 24.8846C21.8671 25.0577 21.7698 25.2925 21.7698 25.5373V28.3986C21.466 28.337 21.1568 28.3061 20.8468 28.3063H19.9238C19.679 28.3063 19.4442 28.4036 19.2711 28.5767C19.098 28.7498 19.0008 28.9846 19.0008 29.2294C19.0008 29.4741 19.098 29.7089 19.2711 29.882C19.4442 30.0551 19.679 30.1524 19.9238 30.1524H20.8468C21.5812 30.1524 22.2855 30.4441 22.8048 30.9634C23.3241 31.4827 23.6159 32.187 23.6159 32.9214V33.8444H12.0782C10.9888 33.8448 9.92822 33.4947 9.05313 32.8459C8.17803 32.1971 7.53484 31.284 7.21861 30.2415C6.90237 29.1991 6.92986 28.0825 7.29701 27.0569C7.66416 26.0313 8.35149 25.1509 9.25745 24.546C9.35812 24.4761 9.4717 24.4269 9.59157 24.4013C9.71144 24.3758 9.8352 24.3744 9.95563 24.3971C10.0761 24.4199 10.1907 24.4665 10.293 24.5341C10.3952 24.6016 10.483 24.6889 10.5511 24.7908C10.6193 24.8927 10.6665 25.0071 10.6899 25.1274C10.7134 25.2477 10.7127 25.3714 10.6878 25.4914C10.6629 25.6115 10.6144 25.7253 10.545 25.8264C10.4757 25.9274 10.3869 26.0136 10.2838 26.08C9.70684 26.4648 9.26897 27.025 9.03497 27.6778C8.80097 28.3307 8.78327 29.0415 8.98449 29.7052C9.1857 30.3688 9.59515 30.9501 10.1523 31.3631C10.7094 31.7761 11.3847 31.9988 12.0782 31.9984H12.5397Z" fill="white"/>
</svg>
