<svg width="42" height="42" viewBox="0 0 42 42" fill="none" xmlns="http://www.w3.org/2000/svg">
<circle cx="21" cy="21" r="21" fill="#EB7100"/>
<path d="M26.9321 22.4929L21.5 27.925L16.0679 22.4929C12.3929 22.8196 9.5 25.8679 9.5 29.6286V31.8571C9.5 33.2768 10.6518 34.4286 12.0714 34.4286H30.9286C32.3482 34.4286 33.5 33.2768 33.5 31.8571V29.6286C33.5 25.8679 30.6071 22.8196 26.9321 22.4929ZM11.2143 17.2857C12.6768 17.2857 13.9893 16.6696 14.9214 15.6946C15.7304 18.5821 18.35 20.7143 21.5 20.7143C25.2875 20.7143 28.3571 17.6446 28.3571 13.8571C28.3571 10.0696 25.2875 7 21.5 7C18.8 7 16.4857 8.575 15.3661 10.8464C14.4339 9.56071 12.9286 8.71429 11.2143 8.71429C11.2143 10.5036 12.1304 12.0786 13.5232 13C12.1304 13.9214 11.2143 15.4964 11.2143 17.2857V17.2857ZM18.9286 12.1429H24.0714C25.0196 12.1429 25.7857 12.9089 25.7857 13.8571H17.2143C17.2143 12.9089 17.9804 12.1429 18.9286 12.1429Z" fill="white"/>
</svg>
