<svg width="286" height="251" viewBox="0 0 286 251" fill="none" xmlns="http://www.w3.org/2000/svg">
<path d="M66.4074 65.0212L63.3029 59.2032L65.798 52.017V47.6133L58.1748 52.017V56.4092L61.4517 62.0892C61.5037 62.1745 61.5797 62.2425 61.6702 62.2847L66.4074 65.0212Z" fill="#7B3F43"/>
<path opacity="0.3" d="M66.4074 65.0212L63.3029 59.2032L65.798 52.017V47.6133L58.1748 52.017V56.4092L61.4517 62.0892C61.5037 62.1745 61.5797 62.2425 61.6702 62.2847L66.4074 65.0212Z" fill="#EB0010"/>
<path d="M82.1708 6.34732C82.1261 5.55196 81.8945 4.77833 81.495 4.08914C81.0955 3.39995 80.5392 2.8146 79.8712 2.38052L78.0086 1.3112C77.2962 0.948718 76.5082 0.759766 75.709 0.759766C74.9097 0.759766 74.1217 0.948718 73.4094 1.3112L45.7107 17.3164C45.0443 17.7493 44.4889 18.3329 44.0895 19.0199C43.69 19.707 43.4577 20.4783 43.4111 21.2717V60.3648C43.4558 61.1586 43.6874 61.9307 44.0871 62.618C44.4867 63.3053 45.043 63.8885 45.7107 64.3201L47.5734 65.3895C48.2847 65.7556 49.073 65.9466 49.873 65.9466C50.673 65.9466 51.4613 65.7556 52.1726 65.3895L62.9807 59.146L66.2576 64.8145C66.3024 64.8981 66.3708 64.9666 66.4542 65.0115C66.5377 65.0564 66.6325 65.0758 66.7269 65.0673C66.8213 65.0587 66.9111 65.0225 66.9851 64.9633C67.0591 64.904 67.114 64.8243 67.143 64.7341L70.5924 54.7538L79.8712 49.3728C80.5396 48.9419 81.0964 48.3588 81.4961 47.6713C81.8958 46.9838 82.127 46.2115 82.1708 45.4175V6.34732Z" fill="#EB0010"/>
<path opacity="0.3" d="M43.4224 60.3988C43.4671 61.1926 43.6987 61.9646 44.0983 62.652C44.4979 63.3393 45.0542 63.9225 45.722 64.3541L47.5846 65.4234C48.2286 65.7512 48.9354 65.9372 49.6573 65.969C50.3793 66.0007 51.0996 65.8774 51.7699 65.6074C50.6891 66.0213 49.8727 65.4119 49.8727 64.1127V25.0195C49.8929 24.2083 50.1226 23.4161 50.5396 22.7199L44.1007 19.0176C43.6807 19.713 43.447 20.5051 43.4224 21.3172V60.3988Z" fill="#EB0010"/>
<path opacity="0.3" d="M82.1704 5.67959C81.9059 4.71376 81.0206 4.40332 79.9628 5.01271L52.1377 21.0294C51.4657 21.4561 50.9121 22.0453 50.528 22.7426L44.1006 19.0287C44.4813 18.3321 45.0359 17.7458 45.7103 17.327L73.4779 1.31036C74.1908 0.949662 74.9786 0.761719 75.7775 0.761719C76.5765 0.761719 77.3642 0.949662 78.0771 1.31036L79.9398 2.39117C80.5174 2.75678 81.0136 3.23744 81.3974 3.8032C81.7812 4.36896 82.0443 5.00769 82.1704 5.67959Z" fill="white"/>
<path d="M57.3431 52.6063L62.6447 49.4522L66.4906 37.4861L71.6709 44.0822L77.0228 40.8981L69.8319 33.1698L75.3595 17.8951L70.0579 21.0492L66.3965 32.9055L61.4008 26.1996L56.0488 29.3837L63.0707 37.1923L57.3431 52.6063Z" fill="white"/>
<path d="M48.9531 248.413L42.3444 236.028L47.6558 220.73V211.355L31.4277 220.73V230.08L38.4036 242.172C38.5142 242.353 38.676 242.498 38.8687 242.588L48.9531 248.413Z" fill="#816740"/>
<path opacity="0.3" d="M48.9531 248.413L42.3444 236.028L47.6558 220.73V211.355L31.4277 220.73V230.08L38.4036 242.172C38.5142 242.353 38.676 242.498 38.8687 242.588L48.9531 248.413Z" fill="#FF9900"/>
<path d="M82.5111 123.508C82.4158 121.815 81.9229 120.168 81.0724 118.701C80.2219 117.234 79.0377 115.988 77.6157 115.064L73.6505 112.787C72.1341 112.016 70.4567 111.613 68.7552 111.613C67.0537 111.613 65.3763 112.016 63.8598 112.787L4.89535 146.859C3.47661 147.78 2.29437 149.023 1.44403 150.485C0.59368 151.948 0.0990393 153.59 0 155.279V238.5C0.0951862 240.19 0.588213 241.833 1.43891 243.296C2.2896 244.759 3.4739 246.001 4.89535 246.92L8.86059 249.196C10.3747 249.975 12.053 250.382 13.7559 250.382C15.4589 250.382 17.1372 249.975 18.6513 249.196L41.6594 235.905L48.6353 247.972C48.7306 248.15 48.8762 248.296 49.0539 248.392C49.2315 248.487 49.4334 248.528 49.6343 248.51C49.8353 248.492 50.0264 248.415 50.1839 248.289C50.3414 248.163 50.4583 247.993 50.52 247.801L57.863 226.555L77.6157 215.1C79.0385 214.183 80.2239 212.941 81.0748 211.478C81.9257 210.014 82.4178 208.37 82.5111 206.68V123.508Z" fill="#FF9900"/>
<path opacity="0.3" d="M0.0244141 238.572C0.1196 240.262 0.612609 241.906 1.4633 243.369C2.314 244.832 3.49832 246.074 4.91976 246.992L8.88498 249.269C10.2559 249.966 11.7605 250.362 13.2973 250.43C14.8342 250.498 16.3676 250.235 17.7945 249.66C15.4937 250.541 13.7559 249.244 13.7559 246.478V163.257C13.7988 161.53 14.2878 159.844 15.1755 158.362L1.46853 150.48C0.574335 151.961 0.0769606 153.647 0.0244141 155.376V238.572Z" fill="#FF9900"/>
<path opacity="0.3" d="M82.5112 122.088C81.9483 120.032 80.0636 119.371 77.8117 120.669L18.578 154.765C17.1475 155.673 15.9689 156.927 15.1513 158.412L1.46875 150.506C2.2792 149.023 3.45974 147.775 4.8955 146.883L64.0068 112.787C65.5244 112.019 67.2014 111.619 68.9022 111.619C70.603 111.619 72.2799 112.019 73.7975 112.787L77.7628 115.088C78.9925 115.866 80.0487 116.889 80.8657 118.094C81.6826 119.298 82.2428 120.658 82.5112 122.088Z" fill="white"/>
<path d="M42.1332 201.734L50.9643 197.028C50.8759 194.303 51.2074 191.557 51.9588 188.789C52.709 185.993 54.1143 183.006 56.1747 179.83C57.925 177.165 59.5245 174.248 60.9732 171.079C62.4468 167.898 63.101 164.33 62.9358 160.376C62.7469 155.857 61.3057 153.102 58.612 152.113C55.9173 151.095 51.3767 152.287 44.9904 155.691C39.103 158.828 34.7554 162.502 31.9476 166.712C29.1636 170.881 27.9108 176.298 28.1894 182.963L36.9831 178.277C36.8143 174.238 37.4286 170.937 38.8261 168.373C40.2486 165.796 42.4441 163.717 45.4127 162.135C48.4812 160.5 50.6567 160.077 51.9393 160.866C53.2219 161.655 53.9186 163.377 54.0296 166.031C54.137 168.602 53.6155 171.074 52.4652 173.448C51.3386 175.781 50.0225 178.157 48.517 180.576C46.3579 183.834 44.712 187.165 43.5792 190.569C42.4452 193.946 41.9632 197.667 42.1332 201.734ZM42.6038 207.503L42.9633 216.103L51.4576 211.577L51.0981 202.976L42.6038 207.503Z" fill="white"/>
<path d="M256.591 101.532L260.561 94.0929L257.37 84.9043V79.2734L267.118 84.9043V90.5204L262.928 97.7831C262.861 97.8922 262.764 97.9791 262.648 98.033L256.591 101.532Z" fill="#5938D9"/>
<path opacity="0.3" d="M256.591 101.532L260.561 94.0929L257.37 84.9043V79.2734L267.118 84.9043V90.5204L262.928 97.7831C262.861 97.8922 262.764 97.9791 262.648 98.033L256.591 101.532Z" fill="#483B7B"/>
<path d="M236.435 26.5078C236.492 25.4908 236.788 24.5016 237.299 23.6204C237.81 22.7392 238.521 21.9907 239.375 21.4357L241.757 20.0684C242.668 19.6049 243.675 19.3633 244.697 19.3633C245.719 19.3633 246.727 19.6049 247.637 20.0684L283.054 40.5334C283.906 41.087 284.617 41.8331 285.127 42.7116C285.638 43.5901 285.935 44.5764 285.995 45.5908V95.5773C285.937 96.5923 285.641 97.5794 285.13 98.4583C284.619 99.3371 283.908 100.083 283.054 100.635L280.673 102.002C279.763 102.47 278.755 102.714 277.732 102.714C276.709 102.714 275.701 102.47 274.792 102.002L260.972 94.0189L256.782 101.267C256.725 101.374 256.637 101.461 256.531 101.519C256.424 101.576 256.303 101.601 256.182 101.59C256.061 101.579 255.946 101.533 255.852 101.457C255.757 101.381 255.687 101.279 255.65 101.164L251.239 88.4027L239.375 81.5223C238.52 80.9713 237.808 80.2258 237.297 79.3467C236.786 78.4677 236.491 77.4801 236.435 76.4648V26.5078Z" fill="#5938D9"/>
<path opacity="0.3" d="M285.98 95.6211C285.923 96.6361 285.627 97.6232 285.116 98.5021C284.605 99.3809 283.893 100.127 283.04 100.679L280.658 102.046C279.834 102.465 278.931 102.703 278.008 102.743C277.085 102.784 276.163 102.626 275.306 102.281C276.688 102.81 277.732 102.031 277.732 100.37V50.3834C277.706 49.3461 277.413 48.3331 276.88 47.443L285.113 42.709C285.65 43.5982 285.948 44.611 285.98 45.6494V95.6211Z" fill="#483B7B"/>
<path opacity="0.3" d="M236.435 25.6554C236.773 24.4205 237.905 24.0235 239.258 24.8027L274.836 45.2824C275.695 45.8281 276.403 46.5815 276.894 47.473L285.113 42.7243C284.626 41.8335 283.917 41.0839 283.055 40.5484L247.549 20.0687C246.638 19.6075 245.631 19.3672 244.609 19.3672C243.588 19.3672 242.58 19.6075 241.669 20.0687L239.287 21.4507C238.548 21.9182 237.914 22.5328 237.423 23.2562C236.933 23.9796 236.596 24.7963 236.435 25.6554Z" fill="white"/>
<path d="M254.307 71.9902L261.611 76.2073L262.547 47.6579L253.819 42.6191L254.307 71.9902ZM253.945 83.1914L261.464 87.5325L261.52 80.6715L254.001 76.3304L253.945 83.1914Z" fill="white"/>
</svg>
