<svg width="220" height="226" viewBox="0 0 220 226" fill="none" xmlns="http://www.w3.org/2000/svg">
<path d="M110.316 93.126C77.0803 93.126 46.0038 102.058 25.0592 117.611L28.5606 119.325C48.1732 104.742 77.0411 96.2356 108.059 95.8194V103.557C58.1925 104.325 17.9977 128.982 17.9977 159.197C17.9977 168.947 22.1945 178.119 29.5449 186.096L18.4433 190.146C9.88333 180.915 5.15281 170.318 5.15281 159.197C5.15281 148.502 9.65807 137.929 18.1789 128.629L14.2319 127.317C5.34379 137.018 0.642652 148.041 0.642652 159.197C0.642652 172.688 7.35157 185.641 20.0447 196.723C32.4439 207.525 49.6668 215.792 69.8523 220.62L71.5173 218.093C49.8528 212.922 32.3166 203.833 20.7204 192.491L31.8269 188.437C48.1242 204.254 77.2076 214.807 110.316 214.807C161.216 214.807 202.63 189.832 202.63 159.197C202.63 140.142 186.71 122.621 160.026 112.332L157.578 114.619C182.944 124.413 198.091 141.063 198.091 159.182C198.091 178.28 181.196 195.053 155.932 204.352L150.144 198.814C160.609 194.989 169.561 189.627 176.172 183.006L172.308 181.605C159.086 194.827 135.903 202.751 110.287 202.751C88.0104 202.751 67.3107 196.703 53.4815 186.16L49.941 187.844C56.0952 192.428 62.8941 196.075 70.1167 198.667L64.5488 204.323C39.3487 195.018 22.503 178.271 22.503 159.197C22.503 130.03 61.8946 106.309 110.311 106.309C122.532 106.254 134.706 107.828 146.51 110.99L148.371 108.542C136.686 105.408 124.652 103.763 112.554 103.645V95.883C169.526 96.5882 215.475 124.717 215.475 159.197C215.475 194.127 168.302 222.545 110.316 222.545C103.248 222.541 96.1867 222.107 89.171 221.247L88.27 223.906C95.5816 224.799 102.941 225.245 110.307 225.243C170.775 225.243 220 195.606 220 159.177C220 122.748 170.785 93.126 110.316 93.126ZM74.0343 200.018C85.0282 203.569 97.4225 205.483 110.321 205.483C123.22 205.483 135.399 203.618 146.246 200.19L152.049 205.748C139.63 209.807 125.414 212.114 110.316 212.114C95.2189 212.114 80.9098 209.793 68.4566 205.709L74.0343 200.018Z" fill="#3A7FE6"/>
<path d="M181.436 176.743C185.231 171.17 187.151 165.264 187.151 159.197C187.151 133.673 152.681 112.905 110.316 112.905C92.2905 112.905 74.7641 116.744 60.9741 123.708L63.8731 125.789C76.8551 119.232 93.3483 115.623 110.316 115.623C121.428 115.572 132.486 117.173 143.127 120.373L136.863 128.414C128.264 125.772 119.313 124.451 110.316 124.496C106.651 124.495 102.989 124.704 99.3472 125.123L100.199 127.792C103.558 127.41 106.936 127.22 110.316 127.224C139.165 127.224 162.671 141.127 163.376 158.398H148.229C147.979 153.991 145.649 149.76 141.452 146.131L137.755 147.689C141.672 151.072 143.744 155.034 143.744 159.197C143.744 169.617 130.252 178.437 113.029 179.274L113.387 181.982C118.034 181.768 122.638 180.994 127.099 179.676L134.968 187.511C126.98 189.986 118.66 191.224 110.297 191.184C91.8155 191.184 75.528 185.464 66.0033 176.811L79.2547 172.355C83.2555 175.783 88.8234 178.55 95.5275 180.259L97.2855 177.756C96.1592 177.466 95.0704 177.139 94.0192 176.777L100.757 170.46C103.851 171.39 107.066 171.855 110.297 171.841C111.954 171.842 113.608 171.725 115.248 171.488L114.19 168.849C112.893 169.037 111.583 169.13 110.272 169.128C101.164 169.128 93.7596 164.667 93.7596 159.182C93.7596 153.697 101.208 149.261 110.316 149.261C119.425 149.261 126.824 153.727 126.824 159.211C126.824 161.567 125.429 163.859 122.907 165.651L126.335 167.409C129.562 165.127 131.339 162.213 131.339 159.211C131.339 152.228 121.913 146.548 110.321 146.548C107.051 146.533 103.798 147.01 100.669 147.963L93.838 141.67C99.1522 139.909 104.718 139.025 110.316 139.055C117.432 139.055 124.224 140.382 129.958 142.899L132.613 140.701C126.104 137.846 118.411 136.337 110.316 136.337C97.452 136.337 85.5669 140.221 78.525 146.714L82.3006 148.183C84.6153 146.112 87.239 144.415 90.0771 143.154L96.9035 149.437C92.2612 151.763 89.2936 155.264 89.2936 159.182C89.2936 163.1 92.3003 166.65 97.0064 168.976L90.2583 175.313C81.9333 171.566 76.8845 165.641 76.8845 159.197C76.8886 157.5 77.2316 155.822 77.8933 154.26L73.5447 153.599C72.7946 155.37 72.405 157.273 72.3988 159.197C72.3988 163.065 74.0149 166.772 76.9286 170.034L63.7066 174.48C59.5833 169.936 57.2376 164.73 57.2376 159.197C57.2376 146.954 69.064 135.642 87.3739 130.343L85.4151 127.895C66.2335 133.448 53.6139 145.098 52.7716 157.835H38.0315C38.487 148.766 43.4917 140.181 52.5953 132.934L49.0009 131.293C38.8444 139.378 33.4773 149.025 33.4773 159.206C33.4773 166.42 36.156 173.329 41.4399 179.744L45.4799 178.54C40.8424 172.903 38.3351 166.865 38.0217 160.563H52.7667C53.9566 179.069 79.3085 193.907 110.316 193.907C142.079 193.907 167.92 178.339 167.92 159.206C167.92 146.807 157.068 135.916 140.791 129.775L147.098 121.69C168.356 129.29 182.641 143.237 182.641 159.197C182.641 164.911 180.834 170.46 177.254 175.709L181.436 176.743ZM138.881 186.135L131.021 178.3C140.556 174.519 147.103 168.232 148.112 161.106H163.292C162.269 171.62 152.779 180.768 138.881 186.135V186.135Z" fill="#3A7FE6"/>
<path opacity="0.3" d="M125.159 148.854C125.115 148.712 124.973 148.271 122.221 148.487L116.702 148.903C116.066 148.413 108.622 142.811 108.598 142.865C108.323 142.62 104.23 139.089 102.961 138.076C103.399 138.066 103.821 137.914 104.166 137.645C104.337 137.444 105.062 136.519 105.189 136.352C107.75 134.731 112.613 131.661 112.917 131.499C113.759 131.049 113.862 130.632 113.798 130.363C113.705 129.947 113.176 129.702 112.329 129.672C111.81 129.672 109.944 129.31 107.785 128.918C104.029 128.233 98.882 127.297 96.4482 127.234C93.9027 127.21 91.3618 127.455 88.8676 127.963C87.7755 128.11 86.3554 128.336 84.7443 128.639C84.4611 127.885 84.0522 127.185 83.5347 126.568C84.2007 125.848 84.1566 125.206 83.7502 124.854C83.4564 124.599 80.0431 124.188 79.8717 124.506C78.6524 124.506 77.2861 124.599 75.9884 124.712C76.15 124.584 75.6162 124.398 75.0433 124.8C74.2157 124.888 73.442 124.991 72.7809 125.108C69.2697 125.725 64.4902 127.361 64.0397 128.536C63.883 128.948 64.1474 129.315 64.5734 129.623C64.0348 129.785 64.451 130.167 65.1268 129.961C65.2748 130.041 65.4268 130.113 65.5822 130.177C65.3325 130.231 65.9152 130.608 66.3951 130.495C66.335 130.534 66.2861 130.588 66.2534 130.651C66.2207 130.715 66.2054 130.786 66.2091 130.858C66.2433 131.582 68.4813 131.866 68.5009 131.866C68.6536 131.884 68.8074 131.892 68.9612 131.891C69.5256 131.883 70.0861 131.795 70.6262 131.631C70.9249 131.729 71.2334 131.822 71.5468 131.915C71.3295 132.074 71.1264 132.251 70.9396 132.444C69.7349 132.934 68.1532 133.61 66.7183 134.266H66.6498C64.445 135.15 62.299 136.174 60.2249 137.331C60.0694 137.401 59.939 137.517 59.8514 137.663C59.7638 137.81 59.7233 137.979 59.7352 138.149C59.8527 139.334 63.0505 141.038 69.2305 143.218L69.3285 143.252C70.3803 143.634 71.4902 143.833 72.6095 143.84C73.31 143.837 74.008 143.756 74.6907 143.6C76.3018 145.304 80.9932 152.414 82.3252 153.335C83.0891 153.869 86.4093 160.808 88.3338 162.722C88.1183 162.899 88.4513 163.261 88.6815 163.07C89.1418 163.56 90.1212 164.892 90.3514 164.755L90.6452 165.053C90.4836 165.132 90.797 165.543 91.0076 165.421L91.987 166.4C91.6932 166.988 91.2671 168.05 91.7225 168.55C91.9515 168.783 92.2279 168.964 92.5329 169.08C92.8379 169.197 93.1645 169.246 93.4904 169.226C94.2759 169.198 95.0488 169.02 95.7675 168.702C97.4814 167.997 98.265 167.032 98.0985 165.817C98.0756 165.647 98.026 165.482 97.9516 165.328C97.9749 165.299 97.9914 165.266 97.9999 165.231C98.0084 165.195 98.0086 165.158 98.0005 165.122L96.1935 158.584C96.3845 158.139 92.986 143.962 92.986 143.962C93.0437 143.95 93.0956 143.919 93.1329 143.874C95.028 145.039 100.141 148.095 103.578 149.461C103.431 149.623 103.28 149.785 103.118 149.951C103.095 149.974 103.077 150.001 103.064 150.031C103.052 150.061 103.045 150.093 103.045 150.125C103.045 150.157 103.052 150.189 103.064 150.219C103.077 150.249 103.095 150.276 103.118 150.299C103.14 150.322 103.166 150.341 103.196 150.354C103.225 150.366 103.257 150.373 103.289 150.373C103.321 150.373 103.353 150.366 103.383 150.354C103.412 150.341 103.439 150.322 103.461 150.299C103.671 150.093 103.872 149.878 104.068 149.657C105.548 150.083 107.088 150.265 108.627 150.196C110.503 150.754 111.8 151.082 111.83 151.087C111.952 151.101 112.075 151.101 112.197 151.087C112.498 151.14 112.803 151.164 113.108 151.161C113.963 151.137 114.814 151.044 115.654 150.881L115.88 150.847C116.399 150.778 116.923 150.747 117.447 150.754C118.345 150.756 119.243 150.702 120.135 150.593C122.162 150.333 124.273 149.721 124.9 149.334C125.203 149.168 125.194 148.962 125.159 148.854ZM104.528 132.018L102.08 135.877L100.929 136.479L100.816 136.391C100.821 136.351 100.821 136.309 100.816 136.269C100.669 135.877 98.1425 132.953 96.3208 131.019H96.5804L104.528 132.018Z" fill="#000814"/>
<path d="M124.474 87.9106L121.433 90.4473C121.433 90.4473 120.84 91.3777 121.261 91.887C121.587 92.3092 121.87 92.7618 122.109 93.2386C122.109 93.2386 122.598 94.2523 123.122 94.4237C123.646 94.5951 124.224 94.6783 124.562 94.0858C124.9 93.4932 126.589 90.364 126.589 90.364L124.474 87.9106Z" fill="white" stroke="#3A7FE6" stroke-linecap="round" stroke-linejoin="round"/>
<path d="M94.6363 159.015C94.6363 159.015 92.32 164.045 92.2171 166.258C92.1143 168.472 92.6236 170.788 95.1553 169.378C97.6871 167.967 98.7547 164.358 99.2835 162.032C99.5922 160.852 99.7274 159.632 99.6851 158.413L94.6363 159.015Z" fill="white" stroke="#3A7FE6" stroke-linecap="round" stroke-linejoin="round"/>
<path d="M122.706 147.547C122.706 147.547 126.428 149.657 128.24 150.666C130.051 151.675 130.654 153.178 129.851 153.986C129.048 154.794 126.834 155.294 125.022 154.686C123.21 154.079 122.407 152.576 121.398 152.375C120.39 152.174 118.279 151.973 117.97 149.256C117.662 146.538 122.706 147.547 122.706 147.547Z" fill="white" stroke="#3A7FE6" stroke-linecap="round" stroke-linejoin="round"/>
<path d="M96.0711 90.4473C96.0711 90.4473 94.886 119.795 95.1407 124.697C95.3953 129.599 94.3767 159.373 94.3767 159.373C95.1831 160.111 96.2465 160.505 97.3394 160.47C99.2982 160.47 99.7879 159.711 99.7879 159.711L110.194 105.187C110.194 105.187 111.8 126.499 113.744 135.059C114.912 140.19 116.346 145.257 118.039 150.24C118.039 150.24 118.397 151.146 120.679 150.695C122.667 150.304 123.387 147.987 123.387 147.987C123.387 147.987 122.966 126.44 123.049 113.145C123.132 99.8496 122.711 87.4356 122.711 87.4356C122.711 87.4356 113.744 90.3739 107.32 91.1574C103.558 91.6205 99.7441 91.3798 96.0711 90.4473V90.4473Z" fill="#3A7FE6"/>
<path d="M108.373 119.271C105.873 125.86 102.758 132.199 99.0685 138.203C97.3695 141.012 95.5139 143.722 93.5104 146.322" stroke="#CCE0FF" stroke-linecap="round" stroke-linejoin="round"/>
<path d="M101.703 141.425C100.62 143.5 99.4114 145.507 98.0839 147.434C96.7794 149.385 95.2381 151.166 93.4954 152.738" stroke="#CCE0FF" stroke-linecap="round" stroke-linejoin="round"/>
<path d="M106.007 131.308C105.107 133.978 104.054 136.594 102.854 139.143" stroke="#CCE0FF" stroke-linecap="round" stroke-linejoin="round"/>
<path d="M123.632 111.318C123.632 111.318 118.245 127.87 112.457 136.896" stroke="#CCE0FF" stroke-linecap="round" stroke-linejoin="round"/>
<path d="M123.416 116.475C121.879 126.357 120.145 136.328 115.811 145.367" stroke="#CCE0FF" stroke-linecap="round" stroke-linejoin="round"/>
<path d="M110.092 107.234L111.169 104.654L114.176 102.935" stroke="#CCE0FF" stroke-linecap="round" stroke-linejoin="round"/>
<path d="M122.05 86.3632C122.05 86.3632 118.524 89.7569 109.709 90.702C100.895 91.6471 96.8303 90.702 96.8303 90.702C96.8303 90.702 95.7187 91.2358 96.4091 92.0536C96.4091 92.0536 95.8803 92.8714 98.7254 93.5521C100.137 93.8821 101.574 94.0983 103.02 94.1985L102.932 92.7293L104.558 92.4551V94.2572C106.053 94.2859 107.548 94.2122 109.034 94.0369V92.4551L110.253 92.3229L110.155 93.8899L110.645 93.8116C112.908 93.451 115.133 92.8805 117.29 92.1074V89.7471L119.053 89.6099L118.891 91.4659C119.991 91.0206 121.007 90.3932 121.898 89.6099C122.347 89.1984 122.615 88.6261 122.643 88.0179C122.672 87.4096 122.458 86.8149 122.05 86.3632Z" fill="#2972DF"/>
<path d="M100.42 149.363C98.2435 151.446 95.9548 153.407 93.5641 155.24" stroke="#CCE0FF" stroke-linecap="round" stroke-linejoin="round"/>
<path d="M96.0711 90.4473C96.0711 90.4473 94.886 119.795 95.1407 124.697C95.3953 129.599 94.3767 159.373 94.3767 159.373C95.1831 160.111 96.2465 160.505 97.3394 160.47C99.2982 160.47 99.7879 159.711 99.7879 159.711L110.194 105.187C110.194 105.187 111.8 126.499 113.744 135.059C114.912 140.19 116.346 145.257 118.039 150.24C118.039 150.24 118.397 151.146 120.679 150.695C122.667 150.304 123.387 147.987 123.387 147.987C123.387 147.987 122.966 126.44 123.049 113.145C123.132 99.8496 122.711 87.4356 122.711 87.4356C122.711 87.4356 113.744 90.3739 107.32 91.1574C103.558 91.6205 99.7441 91.3798 96.0711 90.4473V90.4473Z" stroke="#3A7FE6" stroke-linecap="round" stroke-linejoin="round"/>
<path d="M120.933 51.0361C122.212 51.0847 123.469 51.3863 124.63 51.9234C125.792 52.4605 126.836 53.2225 127.701 54.1653C130.639 57.3826 137.005 73.1118 138.102 74.3802C139.199 75.6485 138.793 78.1215 137.245 79.4241C136.756 79.8502 126.599 90.3641 126.599 90.3641L124.484 87.9155L130.492 75.3988L123.303 63.073" fill="#C0D9FF"/>
<path d="M120.933 51.0361C122.212 51.0847 123.469 51.3863 124.63 51.9234C125.792 52.4605 126.836 53.2225 127.701 54.1653C130.639 57.3826 137.005 73.1118 138.102 74.3802C139.199 75.6485 138.793 78.1215 137.245 79.4241C136.756 79.8502 126.599 90.3641 126.599 90.3641L124.484 87.9155L130.492 75.3988L123.303 63.073" stroke="#3A7FE6" stroke-linecap="round" stroke-linejoin="round"/>
<path d="M124.16 61.9662L124.43 59.7822L125.247 66.1434L124.248 64.9632L124.16 61.9662Z" fill="#3A7FE6" stroke="#3A7FE6" stroke-linecap="round" stroke-linejoin="round"/>
<path d="M133.92 77.2743C131.785 77.3919 130.492 75.3792 130.492 75.3792C130.741 76.1605 131.229 76.844 131.887 77.3334C132.545 77.8227 133.34 78.0933 134.16 78.1068" stroke="#3A7FE6" stroke-linecap="round" stroke-linejoin="round"/>
<path d="M124.195 62.5392C124.009 70.0757 123.108 86.2946 122.877 87.656C122.623 89.179 120.85 90.1045 113.828 92.2249C106.805 94.3453 97.0848 93.5765 96.4091 92.0535C95.7333 90.5306 94.3768 83.092 94.3768 79.5367C94.3768 75.9815 90.9978 62.2013 93.9556 59.0721C96.9134 55.9429 105.033 51.7266 105.033 51.7266C111.546 49.185 118.651 50.1154 121.526 51.2369C121.974 51.3985 122.394 51.6299 122.77 51.9224" fill="#C0D9FF"/>
<path d="M124.195 62.5392C124.009 70.0757 123.108 86.2946 122.877 87.656C122.623 89.179 120.85 90.1045 113.828 92.2249C106.805 94.3453 97.0848 93.5765 96.4091 92.0535C95.7333 90.5306 94.3768 83.092 94.3768 79.5367C94.3768 75.9815 90.9978 62.2013 93.9556 59.0721C96.9134 55.9429 105.033 51.7266 105.033 51.7266C111.546 49.185 118.651 50.1154 121.526 51.2369C121.974 51.3985 122.394 51.6299 122.77 51.9224" stroke="#3A7FE6" stroke-linecap="round" stroke-linejoin="round"/>
<path d="M107.657 60.169L110.449 62.5392L108.5 86.7256L113.152 91.5491L116.281 84.5268L112.055 62.2013L114.082 58.9007L110.87 55.8596L107.657 60.169Z" fill="white" stroke="#3A7FE6" stroke-linecap="round" stroke-linejoin="round"/>
<path d="M115.434 80.0412L108.637 85.0606L108.5 86.7256L110.047 88.3269L116.149 83.8217L115.434 80.0412Z" fill="#3A7FE6"/>
<path d="M112.868 66.5009L112.153 62.7204L110.321 64.067L109.954 68.6507L112.868 66.5009Z" fill="#3A7FE6"/>
<path d="M113.794 71.3783L109.479 74.5663L109.112 79.1499L114.509 75.1637L113.794 71.3783Z" fill="#3A7FE6"/>
<path d="M105.033 50.1056C105.033 50.1056 102.584 52.7304 102.584 53.5727C102.584 54.415 104.866 60.8497 105.459 61.4422C106.051 62.0348 110.698 58.313 110.698 58.313C110.698 58.313 115.595 61.1876 115.943 60.7616C116.291 60.3355 115.522 55.6882 114.592 53.323C113.661 50.9577 108.671 47.7404 105.033 50.1056Z" fill="#C0D9FF" stroke="#3A7FE6" stroke-linecap="round" stroke-linejoin="round"/>
<path d="M106.134 53.5728C106.134 53.5728 108.671 60.0858 111.208 60.4286C113.744 60.7714 114.254 55.1888 114.082 53.5728C113.911 51.9567 108.313 49.6845 106.134 53.5728Z" fill="#3A7FE6" stroke="#3A7FE6" stroke-linecap="round" stroke-linejoin="round"/>
<path d="M118.064 40.3802C118.064 40.3802 117.657 47.5053 116.844 50.5562C116.032 53.607 115.013 56.8635 113.284 57.2749C111.556 57.6862 107.898 55.9478 106.159 54.3367C104.421 52.7255 102.599 44.6699 102.599 42.3292C102.599 39.9884 109.009 37.9512 112.569 37.8533C113.617 37.8285 114.657 38.0433 115.609 38.4812C116.561 38.9191 117.401 39.5686 118.064 40.3802V40.3802Z" fill="white" stroke="#3A7FE6" stroke-linecap="round" stroke-linejoin="round"/>
<path d="M114.024 47.5151V51.4866L112.447 51.7217" stroke="#3A7FE6" stroke-linecap="round" stroke-linejoin="round"/>
<path d="M108.358 47.5151C108.358 47.5151 109.293 48.568 111.981 47.809" stroke="#3A7FE6" stroke-linecap="round" stroke-linejoin="round"/>
<path d="M114.376 47.4564C114.376 47.4564 115.483 47.809 116.653 46.6973" stroke="#3A7FE6" stroke-linecap="round" stroke-linejoin="round"/>
<path d="M114.141 46.9618C114.141 46.9618 114.631 45.6641 116.746 45.2527" stroke="#3A7FE6" stroke-linecap="round" stroke-linejoin="round"/>
<path d="M112.29 47.236C111.777 46.7472 111.149 46.3964 110.464 46.2165C109.778 46.0367 109.059 46.0336 108.372 46.2076" stroke="#3A7FE6" stroke-linecap="round" stroke-linejoin="round"/>
<path d="M112.359 53.607L113.935 53.3328" stroke="#3A7FE6" stroke-linecap="round" stroke-linejoin="round"/>
<path d="M109.293 48.2643C109.558 48.4013 109.852 48.4728 110.15 48.4728C110.448 48.4728 110.742 48.4013 111.007 48.2643" stroke="#3A7FE6" stroke-linecap="round" stroke-linejoin="round"/>
<path d="M114.621 47.7894C114.911 47.8587 115.213 47.8571 115.502 47.7846C115.791 47.7122 116.058 47.571 116.281 47.3731" stroke="#3A7FE6" stroke-linecap="round" stroke-linejoin="round"/>
<path d="M103.108 44.954C103.108 44.954 105.243 46.2762 106.262 45.1596C107.28 44.0431 106.698 43.7885 107.104 42.9756C107.511 42.1627 108.314 42.6132 108.412 44.1411C108.51 45.6689 107.178 45.7669 108.803 45.9726C110.429 46.1782 110.591 46.6728 114.459 44.9393C118.328 43.2057 119.998 38.343 119.998 35.6937C119.998 33.0444 114.401 28.877 111.046 28.3482C107.692 27.8193 102.393 29.9005 100.968 33.5635C99.5432 37.2265 101.174 42.3145 101.277 42.9266C101.38 43.5387 101.38 44.6553 103.108 44.954Z" fill="#3A7FE6"/>
<path d="M115.498 35.1599C113.088 38.1667 108.485 41.3204 99.7686 41.2126" stroke="#CCE0FF" stroke-linecap="round" stroke-linejoin="round"/>
<path d="M118.044 29.8564C117.788 31.1409 117.313 32.3717 116.639 33.4949" stroke="#CCE0FF" stroke-linecap="round" stroke-linejoin="round"/>
<path d="M114.391 28.1376C114.391 28.1376 107.726 37.6084 98.4853 38.8817" stroke="#CCE0FF" stroke-linecap="round" stroke-linejoin="round"/>
<path d="M104.607 46.0754C104.607 46.0754 103.495 42.5348 101.712 42.4957C99.93 42.4565 100.944 46.2076 101.712 47.4906C101.911 47.8401 102.235 48.1006 102.619 48.2189C103.004 48.3373 103.418 48.3045 103.779 48.1272" fill="white"/>
<path d="M104.607 46.0754C104.607 46.0754 103.495 42.5348 101.712 42.4957C99.93 42.4565 100.944 46.2076 101.712 47.4906C101.911 47.8401 102.235 48.1006 102.619 48.2189C103.004 48.3373 103.418 48.3045 103.779 48.1272" stroke="#3A7FE6" stroke-linecap="round" stroke-linejoin="round"/>
<path d="M101.948 45.8012C101.948 45.8012 101.536 44.0872 102.359 44.43C103.182 44.7728 103.593 46.002 103.593 46.002C103.593 46.002 102.907 45.9334 102.976 46.3448C103.044 46.7561 103.524 46.7561 103.524 46.7561" stroke="#3A7FE6" stroke-linecap="round" stroke-linejoin="round"/>
<path d="M97.6773 56.0261C94.8384 57.5931 92.198 59.4954 89.8127 61.692C86.5121 64.9093 91.4189 84.7814 92.0114 87.2349C92.8684 90.7754 94.1269 92.3914 95.8997 92.3082C97.6724 92.2249 103.681 81.8237 105.542 77.338C106.798 74.0991 107.781 70.7607 108.48 67.3578C108.48 67.3578 110.85 66.4274 111.271 65.5851C111.549 65.0138 111.775 64.4189 111.947 63.8075C111.947 63.8075 112.373 65.0758 113.132 64.7379C113.891 64.4 114.234 62.4559 114.401 61.0995C114.567 59.743 111.105 58.5628 111.105 58.5628C111.105 58.5628 111.526 56.7901 112.54 56.5354C113.553 56.2808 114.739 55.3503 114.401 54.8411C114.063 54.3318 111.188 56.1143 111.188 56.1143C111.188 56.1143 108.906 59.6646 108.059 61.2708C107.506 62.3237 106.159 65.2521 105.292 67.1473C104.765 68.3064 104.127 69.4117 103.387 70.4479L99.2639 76.2361C99.2639 76.2361 99.0974 65.8349 99.0974 65.4088" fill="#C0D9FF"/>
<path d="M97.6773 56.0261C94.8384 57.5931 92.198 59.4954 89.8127 61.692C86.5121 64.9093 91.4189 84.7814 92.0114 87.2349C92.8684 90.7754 94.1269 92.3914 95.8997 92.3082C97.6724 92.2249 103.681 81.8237 105.542 77.338C106.798 74.0991 107.781 70.7607 108.48 67.3578C108.48 67.3578 110.85 66.4274 111.271 65.5851C111.549 65.0138 111.775 64.4189 111.947 63.8075C111.947 63.8075 112.373 65.0758 113.132 64.7379C113.891 64.4 114.234 62.4559 114.401 61.0995C114.567 59.743 111.105 58.5628 111.105 58.5628C111.105 58.5628 111.526 56.7901 112.54 56.5354C113.553 56.2808 114.739 55.3503 114.401 54.8411C114.063 54.3318 111.188 56.1143 111.188 56.1143C111.188 56.1143 108.906 59.6646 108.059 61.2708C107.506 62.3237 106.159 65.2521 105.292 67.1473C104.765 68.3064 104.127 69.4117 103.387 70.4479L99.2639 76.2361C99.2639 76.2361 99.0974 65.8349 99.0974 65.4088" stroke="#3A7FE6" stroke-linecap="round" stroke-linejoin="round"/>
<path d="M99.2542 68.5968L100.709 64.9632" stroke="#3A7FE6" stroke-linecap="round" stroke-linejoin="round"/>
<path d="M93.8919 82.7786C93.8919 81.7992 99.2786 76.2411 99.2786 76.2411C99.2786 76.2411 93.3434 80.051 92.7068 81.1381" stroke="#3A7FE6" stroke-linecap="round" stroke-linejoin="round"/>
<path d="M111.291 65.5851C111.569 65.0138 111.795 64.4189 111.967 63.8075C111.967 63.8075 112.393 65.0758 113.152 64.7379C113.911 64.4 114.254 62.4559 114.42 61.0995C114.587 59.743 111.379 58.4795 111.379 58.4795C111.379 58.4795 111.869 56.9566 112.559 56.5207C113.451 55.9674 114.758 55.3357 114.42 54.8264C114.229 54.5374 113.211 54.8264 112.373 55.13C111.638 55.3918 111.025 55.9146 110.65 56.5991C109.915 57.9066 108.661 60.1641 108.079 61.266C107.589 62.2454 106.394 64.7771 105.532 66.6527C105.904 67.2991 106.688 68.0728 108.319 68.2099C108.436 67.6664 108.5 67.3481 108.5 67.3481C108.5 67.3481 110.87 66.4274 111.291 65.5851Z" fill="white" stroke="#3A7FE6" stroke-linecap="round" stroke-linejoin="round"/>
<path d="M111.208 61.5255C112.074 61.8751 112.921 62.2707 113.744 62.7106C113.812 62.7423 113.873 62.7875 113.923 62.8434C113.972 62.8993 114.01 62.9646 114.034 63.0356C114.058 63.1066 114.067 63.1816 114.061 63.2562C114.055 63.3308 114.034 63.4034 113.999 63.4696" fill="white"/>
<path d="M111.208 61.5255C112.074 61.8751 112.921 62.2707 113.744 62.7106C113.812 62.7423 113.873 62.7875 113.923 62.8434C113.972 62.8993 114.01 62.9646 114.034 63.0356C114.058 63.1066 114.067 63.1816 114.061 63.2562C114.055 63.3308 114.034 63.4034 113.999 63.4696" stroke="#3A7FE6" stroke-linecap="round" stroke-linejoin="round"/>
<path d="M111.041 59.9193C111.041 59.9193 113.916 61.2708 114.337 61.692Z" fill="white"/>
<path d="M111.041 59.9193C111.041 59.9193 113.916 61.2708 114.337 61.692" stroke="#3A7FE6" stroke-linecap="round" stroke-linejoin="round"/>
</svg>
