<svg width="88" height="36" viewBox="0 0 88 36" fill="none" xmlns="http://www.w3.org/2000/svg">
<circle cx="70" cy="18" r="18" fill="#E0E8F0"/>
<path fill-rule="evenodd" clip-rule="evenodd" d="M70 33.75C78.6985 33.75 85.75 26.6985 85.75 18C85.75 9.30152 78.6985 2.25 70 2.25C61.3015 2.25 54.25 9.30152 54.25 18C54.25 26.6985 61.3015 33.75 70 33.75ZM67.179 7.83577L66.2611 6H77.2758L76.3579 7.83577H67.179ZM67.179 11.0484V8.75365H76.3579V11.0484C76.3579 11.0484 76.3579 16.0967 71.7685 16.0967C67.179 16.0967 67.179 11.0484 67.179 11.0484ZM58.5183 12.0387C58.857 11.6897 59.3203 11.4893 59.8066 11.4816C60.0523 11.4777 60.2963 11.5231 60.5241 11.6152C60.752 11.7073 60.959 11.8442 61.1329 12.0178C61.3069 12.1914 61.4442 12.3981 61.5367 12.6258C61.6293 12.8534 61.6752 13.0974 61.6717 13.3431V18.3988L68.0969 17.0146H75.3317C75.6044 17.0194 75.8751 17.0627 76.1357 17.1431L65.3433 29.865V21.3415L60.2343 22.4797C59.9658 22.5394 59.6874 22.538 59.4195 22.4756C59.1516 22.4132 58.9012 22.2914 58.6867 22.1192C58.4722 21.947 58.2992 21.7289 58.1804 21.4808C58.0615 21.2328 58 20.9612 58.0002 20.6862V13.3431C57.9933 12.8568 58.1797 12.3877 58.5183 12.0387ZM67.9354 29.865L77.731 18.3198C78.0211 18.7678 78.1936 19.3001 78.1936 19.8766V29.865H67.9354Z" fill="#002248"/>
<circle cx="44" cy="18" r="18" fill="#E0E8F0"/>
<path fill-rule="evenodd" clip-rule="evenodd" d="M43.75 33.5C52.4485 33.5 59.5 26.4485 59.5 17.75C59.5 9.05152 52.4485 2 43.75 2C35.0515 2 28 9.05152 28 17.75C28 26.4485 35.0515 33.5 43.75 33.5ZM34.75 26.8273V29.0773H52.75V26.8273C52.75 24.3523 48.7 22.3273 43.75 22.3273C38.8 22.3273 34.75 24.3523 34.75 26.8273ZM48.25 15.5773V14.4523H39.25V15.5773C39.25 18.0523 41.275 20.0773 43.75 20.0773C46.225 20.0773 48.25 18.0523 48.25 15.5773ZM50.5 9.95234C50.5 9.27734 50.95 8.82734 51.625 8.82734C52.3 8.82734 52.75 9.38984 52.75 9.95234V11.0773C52.75 12.3148 51.7375 13.3273 50.5 13.3273H37C35.7625 13.3273 34.75 12.3148 34.75 11.0773V9.95234C34.75 9.27734 35.2 8.82734 35.875 8.82734C36.55 8.82734 37 9.27734 37 9.95234V11.0773H38.6875L40.2625 7.70234C40.375 7.47734 40.4875 7.25234 40.7125 7.02734C41.275 6.46484 42.175 6.35234 42.9625 6.68984L43.75 7.02734L44.5375 6.80234C45.325 6.46484 46.225 6.57734 46.7875 7.13984C47.0125 7.25234 47.125 7.47734 47.2375 7.70234L48.8125 11.0773H50.5V9.95234Z" fill="#002248"/>
<circle cx="18" cy="18" r="18" fill="#E0E8F0"/>
<path fill-rule="evenodd" clip-rule="evenodd" d="M18.25 33.5C26.9485 33.5 34 26.4485 34 17.75C34 9.05152 26.9485 2 18.25 2C9.55152 2 2.5 9.05152 2.5 17.75C2.5 26.4485 9.55152 33.5 18.25 33.5ZM11.0662 27.0846H12.883V28.9014H11.0662V27.0846ZM11.0023 12.7004H12.8191V10.8836H9.18547V14.5172H11.0023V12.7004ZM12.8191 7.25H11.0023V9.06679H12.8191V7.25ZM25.4924 14.5172H27.3092V10.8836H23.6756V12.7004H25.4924V14.5172ZM25.4924 7.25H23.6756V9.06679H25.4924V7.25ZM29.1207 12.6951V18.0748H25.5014V16.2792H23.7132V14.4845H21.8809V10.8509H20.0641V14.4845H16.4305V10.8509H14.6137V14.4845H12.797V16.2792H11.0023V18.0748H7.37929V12.7004H5.5625V18.0854H7.3615V19.8916H11.0023V25.2889H12.883V27.0845H16.44V25.2889H20.1024V27.0845H23.6594V25.2889H25.5014V19.8916H29.126V18.0801H30.9375V12.6951H29.1207ZM23.6756 28.9013H25.4924V27.0845H23.6756V28.9013ZM16.395 21.6542H12.7969V18.0857H16.395V21.6542ZM23.713 18.0857H20.1347V21.6542H23.713V18.0857Z" fill="#002248"/>
</svg>
